<svg width="1919" height="1389" viewBox="0 0 1919 1389" fill="none" xmlns="http://www.w3.org/2000/svg">
<g clip-path="url(#clip0_32_2466)">
<rect x="-1" y="-3" width="1920" height="1392" fill="url(#paint0_linear_32_2466)"/>
<ellipse cx="352" cy="365" rx="509" ry="472" fill="url(#paint1_radial_32_2466)"/>
<ellipse cx="931" cy="662" rx="903" ry="837" fill="url(#paint2_radial_32_2466)"/>
<path d="M2314 851.5C2314 1263.78 1954.04 1598 1510 1598C1065.96 1598 706 1263.78 706 851.5C706 439.22 1149.46 320 1593.5 320C2037.54 320 2314 439.22 2314 851.5Z" fill="url(#paint3_radial_32_2466)"/>
<circle cx="1578" cy="918" r="256" fill="url(#paint4_radial_32_2466)"/>
<circle cx="96" cy="1174" r="256" fill="url(#paint5_radial_32_2466)"/>
<ellipse cx="1057.5" cy="1209" rx="341.5" ry="295" fill="url(#paint6_radial_32_2466)"/>
<ellipse cx="1596.5" cy="250" rx="341.5" ry="295" fill="url(#paint7_radial_32_2466)"/>
<rect x="-195.944" y="1208.5" width="492.774" height="492.774" transform="rotate(-45 -195.944 1208.5)" stroke="#8B9A9A" stroke-width="22"/>
<rect x="1651" y="1087" width="172" height="172" stroke="#8B9A9A" stroke-width="22"/>
<rect x="1637.5" y="282.945" width="323.068" height="323.068" transform="rotate(-45 1637.5 282.945)" stroke="#098C8C" stroke-width="22"/>
<rect x="66.7853" y="405.826" width="265.772" height="265.772" transform="rotate(-85.748 66.7853 405.826)" stroke="#674072" stroke-width="22"/>
<path d="M862.736 1264.25L958.5 1097.12L1054.26 1264.25H862.736Z" stroke="#098A9B" stroke-width="21"/>
<path d="M449.961 247.75L489.5 178.237L529.039 247.75H449.961Z" stroke="#2D936E" stroke-opacity="0.36" stroke-width="21"/>
<circle cx="764" cy="731" r="190.5" stroke="#391871" stroke-width="25"/>
<path d="M1424.31 800.013L1230.49 731.104L1387.95 598.741L1424.31 800.013Z" stroke="#5A4051" stroke-opacity="0.59" stroke-width="21"/>
<path d="M-1 -3H1919V1389H-1V-3Z" fill="url(#paint8_radial_32_2466)"/>
</g>
<defs>
<linearGradient id="paint0_linear_32_2466" x1="-547" y1="2011.91" x2="2167.24" y2="44.9044" gradientUnits="userSpaceOnUse">
<stop stop-color="#020202"/>
<stop offset="1" stop-color="#1A2031"/>
</linearGradient>
<radialGradient id="paint1_radial_32_2466" cx="0" cy="0" r="1" gradientUnits="userSpaceOnUse" gradientTransform="translate(352 365) rotate(53.3194) scale(544.903 587.618)">
<stop stop-color="#282C39"/>
<stop offset="1" stop-opacity="0"/>
</radialGradient>
<radialGradient id="paint2_radial_32_2466" cx="0" cy="0" r="1" gradientUnits="userSpaceOnUse" gradientTransform="translate(931 662) rotate(53.3076) scale(966.427 1042.31)">
<stop stop-color="#220949"/>
<stop offset="1" stop-opacity="0"/>
</radialGradient>
<radialGradient id="paint3_radial_32_2466" cx="0" cy="0" r="1" gradientUnits="userSpaceOnUse" gradientTransform="translate(1604.5 959) rotate(33.3634) scale(583.693 629.373)">
<stop stop-color="#2C0E44"/>
<stop offset="1" stop-color="#181F32" stop-opacity="0"/>
</radialGradient>
<radialGradient id="paint4_radial_32_2466" cx="0" cy="0" r="1" gradientUnits="userSpaceOnUse" gradientTransform="translate(1618 959) rotate(85.3543) scale(302.494)">
<stop stop-color="#200350"/>
<stop offset="1" stop-color="#1E1732" stop-opacity="0"/>
</radialGradient>
<radialGradient id="paint5_radial_32_2466" cx="0" cy="0" r="1" gradientUnits="userSpaceOnUse" gradientTransform="translate(136 1215) rotate(76.2223) scale(268.732)">
<stop stop-color="#051F2E" stop-opacity="0.64"/>
<stop offset="1" stop-color="#1E1732" stop-opacity="0"/>
</radialGradient>
<radialGradient id="paint6_radial_32_2466" cx="0" cy="0" r="1" gradientUnits="userSpaceOnUse" gradientTransform="translate(1196.5 1100.5) rotate(165.574) scale(624.18 398.279)">
<stop stop-color="#261129"/>
<stop offset="1" stop-color="#1E1532" stop-opacity="0"/>
</radialGradient>
<radialGradient id="paint7_radial_32_2466" cx="0" cy="0" r="1" gradientUnits="userSpaceOnUse" gradientTransform="translate(1735.5 141.5) rotate(165.574) scale(624.18 398.279)">
<stop stop-color="#261129"/>
<stop offset="1" stop-color="#1E1532" stop-opacity="0"/>
</radialGradient>
<radialGradient id="paint8_radial_32_2466" cx="0" cy="0" r="1" gradientUnits="userSpaceOnUse" gradientTransform="translate(959 621) rotate(-142.826) scale(1905.73 2007.56)">
<stop stop-color="#1A2031" stop-opacity="0"/>
<stop offset="0.845385" stop-color="#020202" stop-opacity="0.48"/>
</radialGradient>
<clipPath id="clip0_32_2466">
<rect width="1920" height="1392" fill="white" transform="translate(-1 -3)"/>
</clipPath>
</defs>
</svg>
