<svg width="842" height="99" viewBox="0 0 842 99" fill="none" xmlns="http://www.w3.org/2000/svg">
<g filter="url(#filter0_d_11_56)">
<path d="M52.719 47.637L40.256 59.997L41.595 62.263L53.955 49.8L52.719 47.637ZM25.836 63.911V60.409L4 82.348V85.85L25.836 63.911ZM79.911 20.342L58.075 42.281V45.783L79.911 23.844V20.342ZM25.836 77.919V74.417L9.253 91H12.755L25.836 77.919ZM25.836 42.899V34.968L28.823 40.015L41.183 27.655L25.836 0.874994H4V64.838L25.836 42.899ZM58.075 49.285V57.01L55.191 52.066L42.831 64.426L58.075 91H79.911V27.346L58.075 49.285ZM67.963 0.874994H58.075V10.763L67.963 0.874994ZM16.257 91H25.836V81.421L16.257 91ZM25.836 56.907V53.405L4 75.344V78.846L25.836 56.907ZM4 71.842L25.836 49.903V46.401L4 68.34V71.842ZM32.634 46.71L33.87 48.873L46.333 36.513L44.994 34.247L32.634 46.71ZM48.908 40.942L47.569 38.676L35.209 51.139L36.445 53.302L48.908 40.942ZM25.836 67.413L4 89.352V91H5.751L25.836 70.915V67.413ZM58.075 24.771L79.911 2.83199V0.874994H78.469L58.075 21.269V24.771ZM51.38 45.371L50.144 43.208L37.784 55.568L39.02 57.834L51.38 45.371ZM58.075 14.265V17.767L74.967 0.874994H71.465L58.075 14.265ZM79.911 13.338L58.075 35.277V38.779L79.911 16.84V13.338ZM58.075 28.273V31.775L79.911 9.836V6.334L58.075 28.273ZM31.398 44.444L43.758 32.084L42.522 29.818L30.059 42.281L31.398 44.444ZM93.7927 66.28L112.436 47.637V44.135L92.8657 63.705C93.1747 64.529 93.4837 65.456 93.7927 66.28ZM113.775 60.306C113.569 59.379 113.363 58.452 113.157 57.422L97.1917 73.49C97.6037 74.211 98.0157 74.932 98.5307 75.55L113.775 60.306ZM115.629 65.456C115.217 64.735 114.908 63.808 114.599 62.984L99.9727 77.61C100.488 78.228 101.106 78.846 101.621 79.464L115.629 65.456ZM161.979 19.106C161.567 18.385 161.155 17.664 160.64 16.943L145.293 32.29C145.499 33.217 145.705 34.247 145.911 35.277L161.979 19.106ZM112.539 40.53C113.363 25.183 118.925 17.458 129.431 17.458C131.388 17.458 133.139 17.767 134.787 18.385L147.868 5.304C142.409 2.42 136.229 0.874994 129.431 0.874994C121.912 0.874994 115.114 2.72899 109.243 6.334C103.269 9.836 98.7367 14.883 95.5437 21.475C92.3507 28.067 90.8057 35.586 90.8057 44.238V49.182C90.8057 53.302 91.3207 57.216 92.1447 60.924L112.539 40.53ZM146.426 45.165V48.152C146.426 56.598 144.984 63.19 141.997 67.722C139.113 72.254 134.993 74.52 129.534 74.52C125.826 74.52 122.633 73.49 120.161 71.43L107.183 84.408C108.007 84.923 108.728 85.438 109.552 85.85C115.32 89.249 122.015 91 129.534 91C137.156 91 143.851 89.249 149.722 85.644C155.593 82.142 160.125 77.095 163.318 70.503C166.614 63.911 168.159 56.289 168.159 47.74V43.723C168.159 37.337 167.232 31.569 165.275 26.316L146.426 45.165ZM143.542 27.037C143.954 27.861 144.263 28.685 144.572 29.612L159.198 14.883C158.683 14.265 158.168 13.544 157.653 12.926L143.542 27.037ZM116.865 67.722L103.372 81.215C103.99 81.833 104.608 82.348 105.226 82.863L118.41 69.679C117.792 69.061 117.277 68.443 116.865 67.722ZM163.215 21.372L146.22 38.367C146.323 39.397 146.426 40.53 146.426 41.663L164.348 23.741C164.039 22.917 163.627 22.093 163.215 21.372ZM142.1 24.256C142.203 24.462 142.203 24.565 142.306 24.771L155.902 11.175C155.284 10.557 154.666 10.042 154.048 9.527L140.967 22.711C141.276 23.226 141.688 23.741 142.1 24.256ZM139.216 20.96L152.091 7.98199C151.473 7.46699 150.752 7.05499 150.031 6.53999L137.156 19.415C137.877 19.827 138.495 20.342 139.216 20.96ZM112.539 51.036L94.8227 68.855C95.1317 69.576 95.5437 70.4 95.8527 71.121C95.8527 71.121 95.9557 71.121 95.9557 71.224L112.745 54.332C112.642 53.302 112.539 52.169 112.539 51.036ZM227.839 41.354V37.852L205.9 59.791V63.293L227.839 41.354ZM227.839 48.358V44.856L205.9 66.795V70.297L227.839 48.358ZM227.839 55.362V51.86L205.9 73.799V77.301L227.839 55.362ZM227.839 34.35V30.848L205.9 52.787V56.289L227.839 34.35ZM205.9 42.281L227.839 20.342V17.664H230.517L247.306 0.874994H179.12V17.664H205.9V42.281ZM248.027 17.664H251.529L255.134 14.059V10.557L248.027 17.664ZM205.9 49.285L227.839 27.346V23.844L205.9 45.783V49.285ZM205.9 80.803V91H227.839V58.864L205.9 80.803ZM255.134 17.561L255.031 17.664H255.134V17.561ZM241.023 17.664H244.525L255.134 7.05499V3.553L241.023 17.664ZM234.019 17.664H237.521L254.31 0.874994H250.808L234.019 17.664ZM287.762 59.688V56.186L265.926 78.125V81.627L287.762 59.688ZM287.762 66.692V63.19L265.926 85.129V88.631L287.762 66.692ZM322.267 36.719H321.34L305.169 52.787H308.671L322.267 39.191V36.719ZM303.83 36.719H300.328L265.926 71.121V74.623L303.83 36.719ZM273.96 91H328.55V74.314H290.646L273.96 91ZM322.267 42.693L312.173 52.787H322.267V42.693ZM289.822 36.719H287.762V17.664H308.877L325.666 0.874994H265.926V60.615L289.822 36.719ZM291.264 52.787H294.766L310.834 36.719H307.332L291.264 52.787ZM266.956 91H270.458L287.762 73.696V70.194L266.956 91ZM317.838 36.719H314.336L298.268 52.787H301.77L317.838 36.719ZM265.926 67.619L296.826 36.719H293.324L265.926 64.117V67.619ZM326.387 17.664H328.653V15.295L326.387 17.664ZM312.379 17.664H315.881L328.653 4.789V1.28699L312.379 17.664ZM319.383 17.664H322.885L328.653 11.793V8.291L319.383 17.664ZM361.391 63.911V60.409H364.893L383.33 42.075C381.888 42.796 380.24 43.311 378.386 43.517L339.555 82.348V85.85L361.391 63.911ZM408.977 19.93L368.395 60.409H371.897L409.904 22.505C409.595 21.681 409.286 20.754 408.977 19.93ZM344.808 91H361.391V74.417L344.808 91ZM375.399 60.409C386.523 60.409 395.278 57.834 401.561 52.581C407.947 47.328 411.14 40.221 411.14 31.466C411.14 29.303 410.934 27.346 410.522 25.389L375.399 60.409ZM361.391 35.998V17.664H376.017C377.253 17.664 378.283 17.767 379.313 18.076L393.218 4.17099C388.068 2.008 382.3 0.874994 375.811 0.874994H339.555V57.937L361.391 35.998ZM374.678 43.723H371.176L339.555 75.344V78.846L374.678 43.723ZM361.391 67.413L339.555 89.352V91H341.306L361.391 70.915V67.413ZM384.154 20.239L397.75 6.64299C397.029 6.12799 396.308 5.71599 395.587 5.304L381.991 18.9C382.712 19.312 383.433 19.724 384.154 20.239ZM387.553 37.852L407.844 17.561C407.535 16.84 407.123 16.222 406.711 15.501C406.711 15.501 406.608 15.398 406.608 15.295L388.789 33.114C388.686 34.865 388.274 36.513 387.553 37.852ZM339.555 64.941L361.391 43.002V39.5L339.555 61.439V64.941ZM367.674 43.723H364.172L339.555 68.34V71.842L367.674 43.723ZM388.274 26.625C388.48 27.552 388.686 28.582 388.789 29.612L405.166 13.235C404.651 12.617 404.033 11.999 403.518 11.381L388.274 26.625ZM385.905 21.99C386.42 22.711 386.832 23.432 387.244 24.153L401.767 9.63C401.149 9.115 400.531 8.6 399.81 8.08499L385.905 21.99ZM469.521 57.422L452.732 74.211H456.234L473.023 57.422H469.521ZM466.019 57.422H462.517L428.836 91H432.338L466.019 57.422ZM447.273 83.069L448.921 78.022L435.84 91H439.342L447.273 83.069ZM489.194 37.749L473.641 53.302L474.465 55.98L490.121 40.324L489.194 37.749ZM463.238 32.29L465.092 26.11L466.122 29.303L480.645 14.883L475.392 0.874994H454.792L431.411 64.014L463.238 32.29ZM459.736 74.211H480.13L485.486 91H509.073L491.048 42.899L459.736 74.211ZM442.844 91H444.801L445.728 88.219L442.844 91ZM456.852 52.581L458.397 47.534L425.231 80.7L423.171 86.262L456.852 52.581ZM488.164 35.174L487.237 32.702L471.993 47.946L472.817 50.624L488.164 35.174ZM468.594 37.337L469.418 40.015L484.456 25.08L483.426 22.505L468.594 37.337ZM459.015 57.422H455.513L421.935 91H425.334L459.015 57.422ZM470.242 42.693L471.066 45.371L486.31 30.127L485.383 27.552L470.242 42.693ZM427.291 75.138L460.045 42.384L461.59 37.337L429.351 69.576L427.291 75.138ZM466.946 31.981L467.77 34.659L482.499 19.93L481.572 17.355L466.946 31.981ZM541.741 58.349V54.847L519.905 76.786V80.288L541.741 58.349ZM541.741 65.353V61.851L519.905 83.79V87.292L541.741 65.353ZM568.933 48.667C568.83 57.01 567.182 63.396 563.886 67.722C560.487 72.151 555.749 74.314 549.363 74.314H543.286L526.6 91H549.775C557.706 91 564.813 89.146 571.199 85.438C577.585 81.73 582.529 76.683 586.031 70.091C589.533 63.499 591.387 56.186 591.387 47.843V43.723C591.284 38.367 590.46 33.32 588.915 28.685L568.933 48.667ZM541.741 51.345V47.843L519.905 69.782V73.284L541.741 51.345ZM587.988 26.11C587.679 25.286 587.267 24.462 586.958 23.638L568.933 41.663C568.933 42.487 568.933 43.208 568.933 44.032V45.165L587.988 26.11ZM541.741 37.337V17.664H549.157C552.968 17.664 556.264 18.488 559.045 20.033L572.023 7.05499C571.714 6.849 571.302 6.53999 570.89 6.334C564.401 2.72899 557.191 0.874994 549.157 0.874994H519.905V59.276L541.741 37.337ZM565.74 27.346L579.851 13.338C579.233 12.72 578.718 12.102 578.1 11.587L564.504 25.183C564.916 25.801 565.328 26.522 565.74 27.346ZM519.905 90.794V91H523.098L541.741 72.357V68.855L519.905 90.794ZM566.873 29.818C567.182 30.642 567.388 31.466 567.697 32.393L583.044 17.149C582.529 16.428 582.014 15.81 581.499 15.089L566.873 29.818ZM585.722 21.372C585.31 20.651 584.898 19.93 584.486 19.209L568.315 35.277C568.418 36.307 568.624 37.337 568.727 38.367L585.722 21.372ZM561.208 21.475C561.826 21.99 562.341 22.608 562.959 23.226L576.143 9.93899C575.525 9.42399 574.907 8.90899 574.186 8.394L561.208 21.475ZM519.905 66.28L541.741 44.341V40.839L519.905 62.778V66.28Z" fill="#097FC1"/>
<path d="M642.767 21.887L663.779 0.874994H602.185V17.664H645.754L642.767 21.887ZM631.849 71.327L612.073 91H673.255V74.314H629.789L631.849 71.327ZM639.677 59.997L647.505 48.667L605.069 91H608.571L639.677 59.997ZM672.843 5.819V2.31699L618.253 56.907L610.116 68.546L672.843 5.819ZM634.63 33.526L626.493 45.165L670.783 0.874994H667.281L634.63 33.526ZM670.989 14.677L672.843 11.999V9.321L602.391 79.773V83.275L670.989 14.677ZM655.333 37.337L663.161 26.007L602.391 86.777V90.279L655.333 37.337ZM724.644 21.887L745.656 0.874994H684.062V17.664H727.631L724.644 21.887ZM713.726 71.327L693.95 91H755.132V74.314H711.666L713.726 71.327ZM721.554 59.997L729.382 48.667L686.946 91H690.448L721.554 59.997ZM754.72 5.819V2.31699L700.13 56.907L691.993 68.546L754.72 5.819ZM716.507 33.526L708.37 45.165L752.66 0.874994H749.158L716.507 33.526ZM752.866 14.677L754.72 11.999V9.321L684.268 79.773V83.275L752.866 14.677ZM737.21 37.337L745.038 26.007L684.268 86.777V90.279L737.21 37.337ZM806.52 21.887L827.532 0.874994H765.938V17.664H809.507L806.52 21.887ZM795.602 71.327L775.826 91H837.008V74.314H793.542L795.602 71.327ZM803.43 59.997L811.258 48.667L768.822 91H772.324L803.43 59.997ZM836.596 5.819V2.31699L782.006 56.907L773.869 68.546L836.596 5.819ZM798.383 33.526L790.246 45.165L834.536 0.874994H831.034L798.383 33.526ZM834.742 14.677L836.596 11.999V9.321L766.144 79.773V83.275L834.742 14.677ZM819.086 37.337L826.914 26.007L766.144 86.777V90.279L819.086 37.337Z" fill="#DADADA"/>
</g>
<defs>
<filter id="filter0_d_11_56" x="0" y="0.874994" width="841.008" height="98.125" filterUnits="userSpaceOnUse" color-interpolation-filters="sRGB">
<feFlood flood-opacity="0" result="BackgroundImageFix"/>
<feColorMatrix in="SourceAlpha" type="matrix" values="0 0 0 0 0 0 0 0 0 0 0 0 0 0 0 0 0 0 127 0" result="hardAlpha"/>
<feOffset dy="4"/>
<feGaussianBlur stdDeviation="2"/>
<feComposite in2="hardAlpha" operator="out"/>
<feColorMatrix type="matrix" values="0 0 0 0 0 0 0 0 0 0 0 0 0 0 0 0 0 0 0.25 0"/>
<feBlend mode="normal" in2="BackgroundImageFix" result="effect1_dropShadow_11_56"/>
<feBlend mode="normal" in="SourceGraphic" in2="effect1_dropShadow_11_56" result="shape"/>
</filter>
</defs>
</svg>
