<svg width="1919" height="303" viewBox="0 0 1919 303" fill="none" xmlns="http://www.w3.org/2000/svg">
<path id="extension" fill-rule="evenodd" clip-rule="evenodd" d="M391.22 251.007C216.599 222.428 89.0354 247.147 -1 286.776V302.776H1919V207.975C1919 207.975 1683.71 -102.066 1280.35 34.9519C1230.03 52.0453 1176.6 78.2822 1118.11 107.004C940.591 194.176 716.461 304.236 391.22 251.007ZM1651.55 293.207C1709.38 303.469 1746 309.968 1746 249.776C1746 161.41 1657.58 89.7757 1548.5 89.7757C1439.42 89.7757 1351 161.41 1351 249.776C1351 310.84 1397.76 303.267 1462.65 292.759C1491.66 288.061 1524.3 282.776 1558 282.776C1592.78 282.776 1624.49 288.403 1651.55 293.207Z" fill="#EFEFEF"/>
</svg>
