<svg width="124" height="50" viewBox="0 0 124 50" fill="none" xmlns="http://www.w3.org/2000/svg">
<g id="logo">
<path fill-rule="evenodd" clip-rule="evenodd" d="M96.149 42.6224L115.648 19.7885L103.467 9.39385L83.9741 32.2325C83.1036 33.2513 82.4922 34.4676 82.1945 35.7594L79.6636 46.7805C79.4868 47.559 79.7385 48.3477 80.3159 48.7635C80.9023 49.3394 81.7215 49.4622 82.4554 49.1641L92.9452 44.9336C94.1746 44.4421 95.2794 43.6412 96.149 42.6224ZM93.265 39.5681L92.9724 39.9109C92.5705 40.3722 91.9942 40.7438 91.5162 40.9622L84.7026 43.7107L86.3454 36.5468C86.4807 35.9604 86.7591 35.4132 87.1542 34.9437L87.446 34.6009L87.6786 38.7024C87.723 39.4854 88.3977 40.0613 89.1779 39.9822L93.265 39.5681Z" fill="white"/>
<path d="M121.585 12.8338C123.675 10.3849 123.47 6.77632 121.128 4.77755L117.436 1.62342C115.093 -0.376059 111.493 -0.0113201 109.403 2.43735L105.356 7.17831L117.538 17.5748L121.585 12.8338Z" fill="white"/>
<path d="M80.8711 1.93752H108.02L100.802 10.332H80.8711V1.93752Z" fill="white"/>
<path d="M116.406 47H94.4632L101.637 38.657H116.406V47Z" fill="white"/>
<path d="M47.6773 34.228H45.9263L43.6088 36.5455C43.6445 36.9023 43.7297 37.2347 43.8129 37.5592C43.8497 37.7029 43.8862 37.8453 43.9178 37.9875L47.6773 34.228Z" fill="white"/>
<path d="M49.4283 34.228H51.1793L44.9993 40.3565C44.7933 39.996 44.5873 39.6355 44.4328 39.2235L49.4283 34.228Z" fill="white"/>
<path d="M54.0118 20.2715V20.8895L54.6298 20.2715H54.0118Z" fill="white"/>
<path d="M59.3163 27.842L74.6118 12.495C74.7148 13.01 74.7663 13.5765 74.7663 14.143L60.8613 27.9965C60.3978 27.8935 59.8828 27.842 59.3163 27.842Z" fill="white"/>
<path d="M67.9683 23.928C70.1828 22.8465 71.8823 21.5075 73.0153 19.8595C73.8908 18.6235 74.4058 17.336 74.6633 15.997L62.2518 28.4085C62.7153 28.6145 63.1788 28.872 63.5908 29.181C64.6723 30.108 65.2388 31.7045 65.2388 33.919C65.2388 35.464 64.7238 36.7 63.6423 37.6785C62.5608 38.7085 61.1188 39.172 59.3163 39.172C57.7198 39.172 56.3808 38.7085 55.2993 37.73C54.8358 37.318 54.5268 36.8545 54.2178 36.391L47.4198 43.2405C48.3983 44.0645 49.5828 44.7855 50.9218 45.352C53.3938 46.4335 56.0718 47 58.9558 47C63.8998 47 67.9168 45.8155 70.9038 43.498C73.9423 41.129 75.4873 38.039 75.4873 34.125C75.4873 31.6015 74.8178 29.4385 73.4788 27.739C72.1398 26.0395 70.2858 24.752 67.9683 23.928Z" fill="white"/>
<path d="M59.3163 9.81702C57.9773 9.81702 56.7928 10.1775 55.8143 11.0015C54.7843 11.774 54.3208 12.7525 54.3208 13.8855H44.0723C44.0723 11.568 44.7418 9.55952 46.0293 7.75703C47.3168 5.90302 49.1193 4.51252 51.3853 3.48252C53.7028 2.50402 56.2263 1.98903 58.9558 1.98903C62.4063 1.98903 65.3418 2.55552 67.7623 3.63702L61.3248 10.0745C60.7068 9.92002 60.0888 9.81702 59.3163 9.81702Z" fill="white"/>
<path d="M58.1318 20.2715H56.3808L54.0118 22.6405V24.3915L58.1318 20.2715Z" fill="white"/>
<path d="M71.8823 6.52103L64.4663 13.8855C64.4148 13.422 64.3118 12.9585 64.1058 12.5465L70.9553 5.69703C71.1098 5.82578 71.2643 5.96742 71.4189 6.10905L71.4198 6.10994C71.5739 6.25119 71.7282 6.39261 71.8823 6.52103Z" fill="white"/>
<path d="M43.4028 34.228V35.0005L44.1753 34.228H43.4028Z" fill="white"/>
<path d="M52.9303 34.228H53.6513C53.6513 34.537 53.7028 34.846 53.7543 35.155L46.5443 42.365C46.2354 42.056 45.9779 41.7471 45.7204 41.4381L52.9303 34.228Z" fill="white"/>
<path d="M73.8908 9.76552L55.8143 27.842H57.5653L74.3543 11.053C74.3154 10.9363 74.2798 10.8229 74.245 10.7119L74.2446 10.7107L74.2438 10.7081L74.2435 10.7071C74.1405 10.3791 74.0442 10.0722 73.8908 9.76552Z" fill="white"/>
<path d="M63.5393 18.366C64.0543 17.645 64.3633 16.7695 64.4663 15.6365L72.6548 7.49953C72.9123 7.86002 73.1183 8.16903 73.3243 8.58102L63.5393 18.366Z" fill="white"/>
<path d="M59.9343 20.22L54.0118 26.1425V27.842H54.0633L62.7153 19.19C61.9943 19.7565 61.0673 20.0655 59.9343 20.22Z" fill="white"/>
<path d="M63.1788 11.156C62.9728 10.95 62.7668 10.7955 62.5093 10.641L68.8953 4.25502C69.3073 4.46103 69.6678 4.66702 69.9768 4.92452L63.4363 11.465C63.3848 11.4135 63.3462 11.362 63.3076 11.3106C63.269 11.2591 63.2303 11.2075 63.1788 11.156Z" fill="white"/>
<path d="M18.128 31.4985L24.3595 25.3185L24.9775 26.4L18.7975 32.6315L18.128 31.4985Z" fill="#097FC1"/>
<path d="M10.918 33.4555V31.7045L0 42.674V44.425L10.918 33.4555Z" fill="#097FC1"/>
<path d="M27.0375 22.6405L37.9555 11.671V13.422L27.0375 24.3915V22.6405Z" fill="#097FC1"/>
<path d="M10.918 40.4595V38.7085L2.6265 47H4.3775L10.918 40.4595Z" fill="#097FC1"/>
<path d="M10.918 18.984V22.9495L0 33.919V1.93752H10.918L18.5915 15.3275L12.4115 21.5075L10.918 18.984Z" fill="#097FC1"/>
<path d="M27.0375 26.1425V30.005L25.5955 27.533L19.4155 33.713L27.0375 47H37.9555V15.173L27.0375 26.1425Z" fill="#097FC1"/>
<path d="M27.0375 1.93752H31.9815L27.0375 6.88152V1.93752Z" fill="#097FC1"/>
<path d="M6.12849 47H10.918V42.2105L6.12849 47Z" fill="#097FC1"/>
<path d="M10.918 28.2025V29.9535L0 40.923V39.172L10.918 28.2025Z" fill="#097FC1"/>
<path d="M0 37.421L10.918 26.4515V24.7005L0 35.67V37.421Z" fill="#097FC1"/>
<path d="M14.935 25.9365L14.317 24.855L20.497 18.6235L21.1665 19.7565L14.935 25.9365Z" fill="#097FC1"/>
<path d="M22.454 21.971L21.7845 20.838L15.6045 27.0695L16.2225 28.151L22.454 21.971Z" fill="#097FC1"/>
<path d="M0 46.176L10.918 35.2065V36.9575L0.875504 47H0V46.176Z" fill="#097FC1"/>
<path d="M27.0375 13.8855L37.9555 2.91602V1.93752H37.2345L27.0375 12.1345V13.8855Z" fill="#097FC1"/>
<path d="M23.072 23.104L23.69 24.1855L17.51 30.417L16.892 29.284L23.072 23.104Z" fill="#097FC1"/>
<path d="M27.0375 8.63252V10.3835L35.4835 1.93752H33.7325L27.0375 8.63252Z" fill="#097FC1"/>
<path d="M27.0375 19.1385L37.9555 8.16903V9.92002L27.0375 20.8895V19.1385Z" fill="#097FC1"/>
<path d="M27.0375 15.6365V17.3875L37.9555 6.41802V4.66702L27.0375 15.6365Z" fill="#097FC1"/>
<path d="M19.879 17.542L13.699 23.722L13.0295 22.6405L19.261 16.409L19.879 17.542Z" fill="#097FC1"/>
</g>
</svg>
